<?xml version="1.0" encoding="UTF-8" standalone="no"?>
<svg
   xmlns:dc="http://purl.org/dc/elements/1.1/"
   xmlns:cc="http://creativecommons.org/ns#"
   xmlns:rdf="http://www.w3.org/1999/02/22-rdf-syntax-ns#"
   xmlns:svg="http://www.w3.org/2000/svg"
   xmlns="http://www.w3.org/2000/svg"
   version="1.1"
   id="svg2"
   xml:space="preserve"
   style="top:0; left:0"
   width="803"
   height="1136"
   viewBox="0 0 793.76001 1122.5601"><metadata
     id="metadata8"><rdf:RDF><cc:Work
         rdf:about=""><dc:format>image/svg+xml</dc:format><dc:type
           rdf:resource="http://purl.org/dc/dcmitype/StillImage" /></cc:Work></rdf:RDF></metadata><defs
     id="defs6"><clipPath
       clipPathUnits="userSpaceOnUse"
       id="clipPath26"><path
         d="M 0.32,0 V 1122.5601 H 793.76001 L 793.76001,0 Z"
         clip-rule="evenodd"
         id="path24" /></clipPath><clipPath
       clipPathUnits="userSpaceOnUse"
       id="clipPath50"><path
         d="M 0.32,0 V 1122.5601 H 793.76001 L 793.76001,0 Z"
         clip-rule="evenodd"
         id="path48" /></clipPath><clipPath
       clipPathUnits="userSpaceOnUse"
       id="clipPath82"><path
         d="M 0.32,0 V 1122.5601 H 793.76001 L 793.76001,0 Z"
         clip-rule="evenodd"
         id="path80" /></clipPath><clipPath
       clipPathUnits="userSpaceOnUse"
       id="clipPath142"><path
         d="M 0.32,0 V 1122.5601 H 793.76001 L 793.76001,0 Z"
         clip-rule="evenodd"
         id="path140" /></clipPath></defs><g
     id="g10"
     transform="translate(0,6.9397335e-5)"><g
       id="g12"><path
         d="M 0.32,0 H 793.76001 V 1122.5601 H 0.32 Z"
         style="fill:#ffffff;fill-opacity:1;fill-rule:evenodd;stroke:none"
         id="path14" /></g><g
       id="g16"><path
         d="m 34.240002,38.560001 h 3.519996 v 16.32 h -3.519996 z"
         style="fill:#000000;fill-opacity:1;fill-rule:nonzero;stroke:none"
         id="path18" /></g><g
       id="g20"><g
         id="g22"
         clip-path="url(#clipPath26)"><g
           id="g28"><path
             d="M 50.93,54.759998 H 41.48 V 38.59 h 3.36 v 13.450001 h 6.09 z"
             style="fill:#000000;fill-opacity:1;fill-rule:nonzero;stroke:none"
             id="path30" /></g><g
           id="g32"
           transform="translate(64.059998,54.279999)"><path
             d="m 0,0 c -1.12,0.48 -2.72,0.8 -4.64,0.8 -2.4,0 -4.33,-0.8 -5.77,-2.24 -1.44,-1.45 -2.08,-3.37 -2.08,-5.77 0,-2.56 0.8,-4.64 2.4,-6.24 1.6,-1.6 3.69,-2.4 6.09,-2.4 1.6,0 2.88,0.16 4,0.48 v 3.36 c -1.12,-0.64 -2.24,-0.96 -3.68,-0.96 -1.6,0 -2.88,0.48 -3.84,1.6 -0.97,0.96 -1.45,2.24 -1.45,3.84 0,1.6 0.48,2.88 1.45,3.84 0.8,0.97 2.08,1.45 3.68,1.45 1.44,0 2.72,-0.32 3.84,-0.97 z"
             style="fill:#000000;fill-opacity:1;fill-rule:nonzero;stroke:none"
             id="path34" /></g><g
           id="g36"
           transform="translate(76.559998,54.759998)"><path
             d="m 0,0 h -9.61 v -16.17 h 9.13 v 2.88 h -5.77 v 3.84 h 5.44 v 2.72 h -5.44 v 4.01 H 0 Z"
             style="fill:#000000;fill-opacity:1;fill-rule:nonzero;stroke:none"
             id="path38" /></g></g></g><g
       id="g40"><path
         d="m 78.879997,47.360001 h 6.240006 v 2.399997 h -6.240006 z"
         style="fill:#000000;fill-opacity:1;fill-rule:nonzero;stroke:none"
         id="path42" /></g><g
       id="g44"><g
         id="g46"
         clip-path="url(#clipPath50)"><g
           id="g52"
           transform="translate(98.82,40.669998)"><path
             d="m 0,0 c -1.28,2.4 -2.24,4.32 -2.89,5.6 -0.64,1.44 -1.12,2.88 -1.6,4.32 -0.32,1.29 -0.64,2.73 -0.96,4.17 H -8.97 C -8.65,12.01 -8.01,9.92 -7.21,7.68 -6.25,5.6 -5.13,3.2 -3.53,0.8 h -7.68 V -2.08 H 0 Z"
             style="fill:#000000;fill-opacity:1;fill-rule:nonzero;stroke:none"
             id="path54" /></g><g
           id="g56"
           transform="translate(114.99,54.759998)"><path
             d="m 0,0 h -4 l -2.56,-4.17 c -0.48,-0.8 -0.96,-1.44 -1.28,-1.76 -0.32,-0.16 -0.64,-0.32 -0.97,-0.32 H -9.93 V 0 h -3.36 v -16.17 h 5.61 c 3.84,0 5.76,1.44 5.76,4.48 0,0.96 -0.32,1.92 -0.96,2.72 -0.64,0.8 -1.44,1.44 -2.72,1.76 v 0 c 0.8,0.16 1.6,1.12 2.56,2.4 z m -9.93,-13.45 v 4.64 h 1.77 c 0.8,0 1.44,-0.32 1.92,-0.8 0.48,-0.48 0.64,-0.96 0.64,-1.76 0,-1.44 -0.8,-2.08 -2.56,-2.08 z"
             style="fill:#000000;fill-opacity:1;fill-rule:nonzero;stroke:none"
             id="path58" /></g><g
           id="g60"
           transform="translate(131.33,54.759998)"><path
             d="m 0,0 v -9.77 c 0,-0.96 0.16,-2.08 0.16,-3.36 v 0 c -0.32,0.96 -0.48,1.6 -0.48,2.08 L -4.32,0 h -2.89 l -4,-11.05 c 0,-0.16 -0.16,-0.96 -0.48,-2.08 h -0.16 c 0.16,1.28 0.16,2.72 0.16,4 V 0 h -3.04 v -16.17 h 4.96 l 3.52,9.76 c 0.32,0.8 0.48,1.6 0.64,2.24 v 0 c 0.16,-0.8 0.48,-1.6 0.64,-2.24 l 3.53,-9.76 H 3.52 L 3.52,0 Z"
             style="fill:#000000;fill-opacity:1;fill-rule:nonzero;stroke:none"
             id="path62" /></g><g
           id="g64"
           transform="translate(147.35001,38.59)"><path
             d="M 0,0 V 10.24 H 2.24 V 12.8 H 0 v 3.37 H -3.05 V 12.8 h -7.2 V 10.24 C -8.81,8.64 -7.37,6.88 -6.09,4.96 -4.81,3.04 -3.85,1.44 -3.21,0 Z m -7.37,10.24 h 4.32 V 4.32 c -0.32,0.64 -0.8,1.44 -1.44,2.4 -0.64,0.8 -1.6,2.08 -2.88,3.52 z"
             style="fill:#000000;fill-opacity:1;fill-rule:nonzero;stroke:none"
             id="path66" /></g><g
           id="g68"
           transform="translate(488.16,58.919998)"><path
             d="m 0,0 c -2.4,0 -4.8,0.8 -6.24,2.08 -0.97,0.96 -1.61,2.4 -1.61,3.84 0,1.45 0.64,2.89 1.61,3.85 1.6,1.44 3.84,2.24 6.24,2.24 2.4,0 4.65,-0.8 6.09,-2.24 C 7.05,8.81 7.69,7.37 7.69,5.92 7.69,4.48 7.05,3.04 6.09,2.08 4.49,0.64 2.4,0 0,0 Z M 3.21,9.13 C 2.24,9.93 1.12,10.41 0,10.41 -1.28,10.41 -2.4,9.93 -3.36,9.13 -4.16,8.17 -4.48,7.04 -4.48,5.92 -4.48,4.8 -4,3.68 -3.36,2.88 c 1.92,-1.76 4.8,-1.76 6.57,0 0.96,0.8 1.28,1.92 1.28,3.04 0,1.12 -0.48,2.25 -1.28,3.21 z M -12.17,5.28 C -12.49,4.96 -12.97,4.8 -13.45,4.8 -14.25,4.48 -16.01,4.32 -16.969999,4.16 -18.1,4.16 -19.219999,4 -20.18,3.68 c -0.32,-0.16 -0.48,-0.32 -0.64,-0.8 0,-0.32 0.32,-0.64 0.64,-0.8 0.960001,-0.48 1.92,-0.8 2.880001,-0.64 1.129999,0 2.409999,0.16 3.529999,0.64 0.32,0.16 0.48,0.32 0.8,0.48 0.32,0.48 0.64,0.96 0.8,1.44 h 1.28 V 0.32 h -1.44 V 0.8 c 0,0.16 -0.16,0.32 -0.48,0.16 -1.44,-0.8 -3.04,-1.12 -4.649999,-1.12 -1.280001,0 -2.720001,0.32 -4,0.96 -1.120001,0.48 -2.080002,1.28 -2.080002,2.72 0,0.8 0.320002,1.44 0.800001,1.92 0.64,0.8 1.440001,1.12 2.24,1.28 0.639999,0.16 2.08,0.32 3.370001,0.48 C -15.85,7.37 -14.57,7.53 -14.09,7.69 c 0.48,0 1.12,0.16 1.12,0.96 0,0.64 -0.32,0.96 -0.8,1.12 -0.96,0.32 -1.76,0.48 -2.72,0.48 -1.130001,0 -2.09,-0.16 -3.210001,-0.64 C -20.34,9.45 -20.98,8.97 -21.459999,8.49 -21.780001,8.01 -21.780001,7.69 -21.780001,7.2 h -1.439998 v 4.17 h 1.599998 v -0.48 c 0,-0.16 0,-0.32 0.160002,-0.32 0,0 0.16,0 0.16,0.16 0.799999,0.32 1.439998,0.64 2.24,0.8 0.959999,0.16 1.6,0.32 2.569999,0.32 0.96,0 2.24,-0.16 3.2,-0.48 0.8,-0.32 1.44,-0.64 1.92,-0.96 0.64,-0.64 1.12,-1.44 0.96,-2.24 0,-0.8 -0.32,-1.61 -0.8,-2.09 -0.16,-0.32 -0.48,-0.64 -0.96,-0.8 z M 19.219999,1.92 H 20.5 c 0.639999,0 0.799999,0.32 0.799999,0.96 l 0.16,4.49 L 14.26,0.64 H 9.29 v 1.28 h 1.12 c 0.8,0 0.8,0.48 0.8,0.96 v 6.25 c 0,0.32 0,0.8 -0.48,0.8 H 9.29 v 1.28 h 5.93 V 9.93 h -1.44 c -0.48,0 -0.65,-0.16 -0.65,-0.8 V 3.84 l 8.329999,7.53 h 2.09 l -0.16,-8.49 c 0,-0.64 0,-0.96 0.640002,-0.96 h 1.279998 V 0.64 h -6.09 V 1.92 Z M 36.52,0.64 v 1.28 h 0.96 c 0,0 0,0 0.159999,0 0,0.16 0.16,0.32 0,0.48 0,0 -2.399997,2.88 -2.559997,2.88 0,0 0,0 0,0 L 32.669998,2.4 c -0.16,-0.32 -0.16,-0.48 0.160004,-0.48 h 0.809997 V 0.64 H 26.59 v 1.28 h 1.119999 c 0.480002,0 0.960001,0.32 1.120001,0.64 0.16,0.16 3.839998,4.48 3.839998,4.64 0.160004,0 0.160004,0 0.160004,0.17 v 2.08 c 0,0.16 0,0.16 0,0.32 -0.160004,0 -0.160004,0.16 -0.320004,0.16 H 30.91 v 1.28 h 7.049999 V 9.93 h -1.599998 c -0.16,0 -0.16,-0.16 -0.32,-0.32 0,0 0,-0.16 0,-0.16 V 7.37 c 0,-0.17 0,-0.17 0,-0.33 l 3.84,-4.64 C 40.200001,2.08 40.52,1.92 41,1.92 h 1.279999 V 0.64 H 36.52 Z"
             style="fill:#000000;fill-opacity:1;fill-rule:nonzero;stroke:none"
             id="path70" /></g></g></g><g
       id="g72"><path
         d="m 544.15997,42.720001 h 1.44001 v 48.159996 h -1.44001 z"
         style="fill:#cccccc;fill-opacity:1;fill-rule:nonzero;stroke:none"
         id="path74" /></g><g
       id="g76"><g
         id="g78"
         clip-path="url(#clipPath82)"><g
           id="g84"
           transform="translate(560.22998,51.23)"><path
             d="M 0,0 C 0,-0.8 0.16,-1.44 0.64,-2.08 0.96,-2.56 1.6,-3.04 2.57,-3.36 1.76,-3.68 1.28,-4 0.96,-4.64 0.64,-5.12 0.48,-5.6 0.48,-6.24 c 0,-0.64 0.16,-1.28 0.48,-1.92 0.32,-0.48 0.8,-0.8 1.45,-1.12 0.64,-0.32 1.44,-0.48 2.24,-0.48 0.8,0 1.44,0.16 2.08,0.48 0.64,0.16 1.28,0.64 1.6,1.12 0.32,0.64 0.48,1.12 0.48,1.76 0,0.64 -0.16,1.28 -0.48,1.76 -0.48,0.48 -0.96,0.96 -1.6,1.28 0.8,0.32 1.44,0.64 1.76,1.28 0.48,0.64 0.8,1.28 0.8,2.08 0,1.13 -0.48,2.09 -1.28,2.73 C 7.05,3.37 5.93,3.85 4.65,3.85 3.21,3.85 2.09,3.37 1.28,2.73 0.32,2.09 0,1.13 0,0 Z m 2.73,-0.16 c 0,0.49 0.16,0.97 0.48,1.45 0.32,0.32 0.8,0.48 1.44,0.48 0.48,0 0.96,-0.16 1.28,-0.48 C 6.41,0.81 6.57,0.33 6.57,-0.16 6.57,-0.8 6.41,-1.28 5.93,-1.6 5.61,-2.08 5.13,-2.24 4.65,-2.24 c -0.64,0 -1.12,0.16 -1.44,0.64 -0.32,0.32 -0.48,0.8 -0.48,1.44 z m 0.32,-5.92 c 0,0.48 0.16,0.96 0.48,1.28 0.32,0.32 0.64,0.48 1.12,0.48 0.48,0 0.8,-0.16 1.12,-0.48 0.32,-0.32 0.48,-0.8 0.48,-1.28 0,-0.48 -0.16,-0.8 -0.48,-1.28 -0.32,-0.32 -0.64,-0.48 -1.12,-0.48 -0.48,0 -0.8,0.16 -1.12,0.48 -0.32,0.48 -0.48,0.8 -0.48,1.28 z"
             style="fill:#000000;fill-opacity:1;fill-rule:nonzero;stroke:none"
             id="path86" /></g><g
           id="g88"
           transform="translate(571.59998,54.439999)"><path
             d="m 0,0 v -2.4 c 0.97,0.64 1.93,0.96 2.89,0.96 0.8,0 1.44,-0.32 1.76,-0.64 0.48,-0.32 0.8,-0.97 0.8,-1.61 0,-1.28 -0.96,-1.92 -2.88,-1.92 -0.64,0 -1.44,0 -2.41,0 l 0.49,-7.2 h 7.04 v 2.24 h -4.8 l -0.16,2.88 c 0.48,-0.16 0.96,-0.16 1.28,-0.16 1.28,0 2.24,0.32 3.04,1.12 0.8,0.64 1.12,1.6 1.12,2.88 0,1.29 -0.48,2.41 -1.28,3.21 C 5.93,0.16 4.65,0.64 3.21,0.64 1.93,0.64 0.81,0.48 0,0 Z"
             style="fill:#000000;fill-opacity:1;fill-rule:nonzero;stroke:none"
             id="path90" /></g><g
           id="g92"
           transform="translate(596.75,54.759998)"><path
             d="m 0,0 h -2.72 v -5.29 c 0,-1.44 -0.48,-2.24 -1.61,-2.24 -0.48,0 -0.8,0.32 -1.12,0.64 -0.32,0.48 -0.48,0.96 -0.48,1.6 V 0 h -2.72 v -5.45 c 0,-1.28 -0.48,-2.08 -1.6,-2.08 -0.48,0 -0.96,0.32 -1.28,0.64 -0.16,0.48 -0.32,0.96 -0.32,1.76 V 0 h -2.89 v -9.29 h 2.89 v 1.44 0 c 0.32,-0.64 0.8,-0.96 1.28,-1.28 0.48,-0.32 1.12,-0.48 1.76,-0.48 1.28,0 2.08,0.64 2.56,1.76 0.8,-1.12 1.92,-1.76 3.21,-1.76 2.08,0 3.04,1.28 3.04,3.84 z"
             style="fill:#000000;fill-opacity:1;fill-rule:nonzero;stroke:none"
             id="path94" /></g><g
           id="g96"
           transform="translate(613.89001,54.759998)"><path
             d="m 0,0 h -2.73 v -5.29 c 0,-1.44 -0.64,-2.24 -1.6,-2.24 -0.48,0 -0.96,0.32 -1.28,0.64 -0.32,0.48 -0.48,0.96 -0.48,1.6 V 0 h -2.72 v -5.45 c 0,-1.28 -0.48,-2.08 -1.44,-2.08 -0.64,0 -0.96,0.32 -1.29,0.64 -0.32,0.48 -0.48,0.96 -0.48,1.76 V 0 h -2.72 v -9.29 h 2.72 v 1.44 0 c 0.32,-0.64 0.81,-0.96 1.29,-1.28 0.64,-0.32 1.12,-0.48 1.76,-0.48 1.28,0 2.24,0.64 2.72,1.76 0.64,-1.12 1.76,-1.76 3.2,-1.76 1.93,0 3.05,1.28 3.05,3.84 z"
             style="fill:#000000;fill-opacity:1;fill-rule:nonzero;stroke:none"
             id="path98" /></g><g
           id="g100"
           transform="translate(627.34003,43.07)"><path
             d="m 0,0 c -0.48,-0.16 -0.8,-0.32 -1.12,-0.32 -0.96,0 -1.44,0.64 -1.44,1.6 V 2.4 h 2.24 v 1.92 h -2.24 v 7.37 H -5.29 V 4.32 h -1.6 V 2.4 h 1.6 V 1.12 c 0,-1.12 0.32,-1.92 1.13,-2.56 0.64,-0.64 1.6,-0.96 2.72,-0.96 0.48,0 0.96,0 1.44,0.16 z"
             style="fill:#000000;fill-opacity:1;fill-rule:nonzero;stroke:none"
             id="path102" /></g><g
           id="g104"><path
             d="M 635.51001,41.630001 629.09998,57 h -2.39997 l 6.40998,-15.369999 z"
             style="fill:#000000;fill-opacity:1;fill-rule:nonzero;stroke:none"
             id="path106" /></g><g
           id="g108"
           transform="translate(639.34998,52.52)"><path
             d="M 0,0 H 5.61 V 2.24 H -3.04 V 1.28 c 0,-0.64 0,-1.28 0.32,-1.92 0.16,-0.49 0.64,-0.97 0.96,-1.45 0.48,-0.48 1.12,-1.12 2.08,-1.76 0.8,-0.64 1.44,-1.28 1.76,-1.76 0.32,-0.48 0.64,-0.96 0.64,-1.44 0,-1.28 -0.8,-1.76 -2.08,-1.76 -1.12,0 -2.08,0.32 -3.2,1.28 v -2.4 c 1.12,-0.8 2.4,-1.12 3.84,-1.12 1.44,0 2.4,0.32 3.21,0.96 0.8,0.64 1.12,1.6 1.12,2.72 0,0.64 -0.16,1.28 -0.32,1.76 -0.32,0.64 -0.48,1.12 -0.96,1.6 C 3.85,-3.53 3.2,-3.05 2.24,-2.41 1.44,-1.77 0.8,-1.29 0.48,-0.96 0.16,-0.48 0,-0.32 0,0 Z"
             style="fill:#000000;fill-opacity:1;fill-rule:nonzero;stroke:none"
             id="path110" /></g><g
           id="g112"
           transform="translate(658.57001,41.310001)"><path
             d="M 0,0 V 13.45 H -2.72 V 3.2 C -3.04,3.36 -3.52,3.68 -4.16,4 -4.8,4.16 -5.28,4.32 -5.77,4.32 V 2.08 C -4.16,1.6 -2.88,0.96 -1.76,0 Z"
             style="fill:#000000;fill-opacity:1;fill-rule:nonzero;stroke:none"
             id="path114" /></g><g
           id="g116"><path
             d="M 670.26001,41.630001 663.85998,57 h -2.40997 l 6.40997,-15.369999 z"
             style="fill:#000000;fill-opacity:1;fill-rule:nonzero;stroke:none"
             id="path118" /></g><g
           id="g120"
           transform="translate(671.53998,54.439999)"><path
             d="m 0,0 v -2.4 c 0.96,0.64 1.93,0.96 2.89,0.96 0.8,0 1.44,-0.32 1.92,-0.64 0.32,-0.32 0.64,-0.97 0.64,-1.61 0,-1.28 -0.96,-1.92 -2.88,-1.92 -0.64,0 -1.45,0 -2.41,0 l 0.48,-7.2 h 7.05 v 2.24 h -4.8 l -0.16,2.88 c 0.48,-0.16 0.96,-0.16 1.28,-0.16 1.28,0 2.4,0.32 3.04,1.12 0.8,0.64 1.12,1.6 1.12,2.88 0,1.29 -0.48,2.41 -1.28,3.21 C 5.93,0.16 4.81,0.64 3.21,0.64 1.93,0.64 0.8,0.48 0,0 Z"
             style="fill:#000000;fill-opacity:1;fill-rule:nonzero;stroke:none"
             id="path122" /></g><g
           id="g124"
           transform="translate(681.46997,48.509998)"><path
             d="m 0,0 c 0,-2.4 0.48,-4 1.28,-5.28 0.8,-1.12 2.09,-1.76 3.53,-1.76 3.04,0 4.64,2.24 4.64,6.72 0,2.08 -0.48,3.85 -1.28,4.97 C 7.37,5.93 6.25,6.57 4.65,6.57 1.6,6.57 0,4.33 0,0 Z m 2.73,-0.16 c 0,3.04 0.64,4.65 1.92,4.65 1.28,0 1.92,-1.61 1.92,-4.81 0,-3.04 -0.64,-4.64 -1.76,-4.64 -1.44,0 -2.08,1.6 -2.08,4.8 z"
             style="fill:#000000;fill-opacity:1;fill-rule:nonzero;stroke:none"
             id="path126" /></g><g
           id="g128"
           transform="translate(692.20001,48.509998)"><path
             d="m 0,0 c 0,-2.4 0.32,-4 1.28,-5.28 0.81,-1.12 1.93,-1.76 3.53,-1.76 3.04,0 4.64,2.24 4.64,6.72 0,2.08 -0.48,3.85 -1.28,4.97 C 7.37,5.93 6.09,6.57 4.65,6.57 1.44,6.57 0,4.33 0,0 Z m 2.73,-0.16 c 0,3.04 0.64,4.65 1.92,4.65 1.28,0 1.92,-1.61 1.92,-4.81 0,-3.04 -0.64,-4.64 -1.76,-4.64 -1.44,0 -2.08,1.6 -2.08,4.8 z"
             style="fill:#000000;fill-opacity:1;fill-rule:nonzero;stroke:none"
             id="path130" /></g></g></g><g
       id="g132"><path
         d="m 708.79999,41.599998 h 2.88 v 13.280003 h -2.88 z"
         style="fill:#000000;fill-opacity:1;fill-rule:nonzero;stroke:none"
         id="path134" /></g><g
       id="g136"><g
         id="g138"
         clip-path="url(#clipPath142)"><g
           id="g144"
           transform="translate(714.15002,51.560001)"><path
             d="m 0,0 c 0.96,0.8 2.24,1.28 3.52,1.28 0.8,0 1.44,-0.16 1.76,-0.48 0.32,-0.16 0.64,-0.48 0.64,-0.97 0,-0.32 -0.16,-0.64 -0.48,-0.96 -0.32,-0.32 -1.12,-0.8 -2.4,-1.28 -2.08,-0.96 -3.2,-2.24 -3.2,-3.84 0,-1.28 0.48,-2.24 1.44,-2.88 0.96,-0.64 2.24,-0.96 3.68,-0.96 1.28,0 2.4,0.16 3.2,0.48 v 2.56 c -0.8,-0.48 -1.92,-0.8 -3.04,-0.8 -0.64,0 -1.28,0 -1.6,0.32 -0.48,0.32 -0.64,0.64 -0.64,0.96 0,0.48 0.16,0.64 0.48,0.96 0.16,0.32 0.96,0.64 2.08,1.28 1.28,0.48 2.08,1.12 2.56,1.76 0.48,0.48 0.8,1.28 0.8,2.08 C 8.8,0.8 8.32,1.76 7.52,2.4 6.56,3.2 5.28,3.52 3.68,3.52 2.08,3.52 0.96,3.2 0,2.72 Z"
             style="fill:#000000;fill-opacity:1;fill-rule:nonzero;stroke:none"
             id="path146" /></g><g
           id="g148"
           transform="translate(724.40002,48.349998)"><path
             d="m 0,0 c 0,-2.08 0.48,-3.68 1.76,-4.96 1.12,-1.28 2.72,-1.92 4.8,-1.92 1.76,0 3.37,0.64 4.49,1.76 1.12,1.28 1.76,2.88 1.76,4.96 0,1.92 -0.64,3.69 -1.92,4.97 C 9.76,6.09 8.16,6.73 6.24,6.73 4.32,6.73 2.88,6.09 1.76,4.81 0.48,3.53 0,1.92 0,0 Z m 2.88,-0.16 c 0,1.28 0.32,2.4 0.96,3.2 C 4.48,3.85 5.28,4.33 6.4,4.33 7.36,4.33 8.32,3.85 8.96,3.04 9.44,2.24 9.76,1.28 9.76,0 9.76,-1.44 9.44,-2.56 8.96,-3.36 8.32,-4.16 7.52,-4.48 6.4,-4.48 5.28,-4.48 4.48,-4.16 3.84,-3.2 3.2,-2.4 2.88,-1.44 2.88,-0.16 Z"
             style="fill:#000000;fill-opacity:1;fill-rule:nonzero;stroke:none"
             id="path150" /></g><g
           id="g152"
           transform="translate(745.21997,41.310001)"><path
             d="M 0,0 V 13.45 H -2.72 V 3.2 C -3.04,3.36 -3.52,3.68 -4.16,4 -4.8,4.16 -5.28,4.32 -5.77,4.32 V 2.08 C -4.16,1.6 -2.88,0.96 -1.76,0 Z"
             style="fill:#000000;fill-opacity:1;fill-rule:nonzero;stroke:none"
             id="path154" /></g><g
           id="g156"
           transform="translate(749.21997,48.509998)"><path
             d="m 0,0 c 0,-2.4 0.48,-4 1.28,-5.28 0.8,-1.12 2.09,-1.76 3.53,-1.76 3.04,0 4.64,2.24 4.64,6.72 0,2.08 -0.48,3.85 -1.28,4.97 C 7.37,5.93 6.25,6.57 4.65,6.57 1.6,6.57 0,4.33 0,0 Z m 2.73,-0.16 c 0,3.04 0.64,4.65 1.92,4.65 1.28,0 1.92,-1.61 1.92,-4.81 0,-3.04 -0.64,-4.64 -1.76,-4.64 -1.44,0 -2.08,1.6 -2.08,4.8 z"
             style="fill:#000000;fill-opacity:1;fill-rule:nonzero;stroke:none"
             id="path158" /></g><g
           id="g160"
           transform="translate(759.95001,48.509998)"><path
             d="m 0,0 c 0,-2.4 0.32,-4 1.28,-5.28 0.81,-1.12 1.93,-1.76 3.53,-1.76 3.04,0 4.64,2.24 4.64,6.72 0,2.08 -0.48,3.85 -1.28,4.97 C 7.37,5.93 6.09,6.57 4.65,6.57 1.44,6.57 0,4.33 0,0 Z m 2.73,-0.16 c 0,3.04 0.64,4.65 1.92,4.65 1.28,0 1.92,-1.61 1.92,-4.81 0,-3.04 -0.64,-4.64 -1.76,-4.64 -1.44,0 -2.08,1.6 -2.08,4.8 z"
             style="fill:#000000;fill-opacity:1;fill-rule:nonzero;stroke:none"
             id="path162" /></g><g
           id="g164"
           transform="translate(566.15997,76.529999)"><path
             d="m 0,0 c 0,-0.64 -0.32,-1.12 -0.64,-1.44 -0.48,-0.48 -0.96,-0.64 -1.76,-0.64 -0.48,0 -0.96,0.16 -1.44,0.48 -0.49,0.16 -0.97,0.48 -1.45,0.96 v -1.44 c 0.32,-0.32 0.8,-0.64 1.29,-0.96 0.48,-0.16 1.12,-0.32 1.76,-0.32 1.12,0 2.08,0.32 2.72,0.96 C 1.12,-1.92 1.44,-1.12 1.44,0 1.44,0.8 1.28,1.6 0.8,2.24 0.48,2.88 -0.32,3.52 -1.28,4.32 -2.24,4.97 -2.88,5.45 -3.2,5.77 -3.68,6.09 -3.84,6.41 -4,6.57 -4.17,6.89 -4.17,7.21 -4.17,7.69 H 1.76 V 8.97 H -5.77 V 8.33 c 0,-0.64 0,-1.28 0.32,-1.76 0.16,-0.48 0.48,-0.96 0.8,-1.44 C -4.17,4.81 -3.52,4.16 -2.56,3.52 -1.6,2.88 -0.96,2.24 -0.64,1.76 -0.16,1.28 0,0.64 0,0 Z"
             style="fill:#2b2b2b;fill-opacity:1;fill-rule:nonzero;stroke:none"
             id="path166" /></g><g
           id="g168"
           transform="translate(569.52002,79.730003)"><path
             d="m 0,0 c 0,-2.24 0.32,-3.84 1.12,-4.96 0.64,-0.96 1.77,-1.6 3.05,-1.6 2.56,0 3.84,2.08 3.84,6.24 0,2.09 -0.32,3.69 -1.12,4.65 C 6.25,5.45 5.13,6.09 3.85,6.09 2.73,6.09 1.76,5.45 0.96,4.49 0.32,3.37 0,1.93 0,0 Z m 1.6,-0.16 c 0,3.37 0.8,4.97 2.41,4.97 1.6,0 2.4,-1.76 2.4,-4.97 0,-3.36 -0.8,-5.12 -2.4,-5.12 -1.61,0 -2.41,1.76 -2.41,5.12 z"
             style="fill:#2b2b2b;fill-opacity:1;fill-rule:nonzero;stroke:none"
             id="path170" /></g><g
           id="g172"
           transform="translate(584.90002,76.529999)"><path
             d="m 0,0 c 0,-0.64 -0.16,-1.12 -0.64,-1.44 -0.32,-0.48 -0.96,-0.64 -1.6,-0.64 -0.49,0 -1.13,0.16 -1.61,0.48 -0.48,0.16 -0.96,0.48 -1.44,0.96 v -1.44 c 0.48,-0.32 0.96,-0.64 1.44,-0.96 0.48,-0.16 0.96,-0.32 1.77,-0.32 1.12,0 1.92,0.32 2.56,0.96 0.64,0.48 1.12,1.28 1.12,2.4 0,0.8 -0.32,1.6 -0.64,2.24 -0.48,0.64 -1.12,1.28 -2.08,2.08 -1.12,0.65 -1.77,1.13 -2.09,1.45 -0.32,0.32 -0.64,0.64 -0.8,0.8 0,0.32 -0.16,0.64 -0.16,1.12 H 1.92 V 8.97 H -5.77 V 8.33 c 0,-0.64 0.16,-1.28 0.32,-1.76 C -5.29,6.09 -4.97,5.61 -4.49,5.13 -4.01,4.81 -3.37,4.16 -2.4,3.52 -1.44,2.88 -0.8,2.24 -0.48,1.76 -0.16,1.28 0,0.64 0,0 Z"
             style="fill:#2b2b2b;fill-opacity:1;fill-rule:nonzero;stroke:none"
             id="path174" /></g><g
           id="g176"
           transform="translate(594.34998,76.529999)"><path
             d="m 0,0 c 0,-0.64 -0.32,-1.12 -0.64,-1.44 -0.48,-0.48 -0.96,-0.64 -1.77,-0.64 -0.48,0 -0.96,0.16 -1.44,0.48 -0.48,0.16 -0.96,0.48 -1.44,0.96 v -1.44 c 0.32,-0.32 0.8,-0.64 1.28,-0.96 0.48,-0.16 1.12,-0.32 1.76,-0.32 1.13,0 2.09,0.32 2.73,0.96 0.64,0.48 0.96,1.28 0.96,2.4 0,0.8 -0.16,1.6 -0.64,2.24 -0.32,0.64 -1.12,1.28 -2.08,2.08 -0.97,0.65 -1.61,1.13 -1.93,1.45 -0.48,0.32 -0.64,0.64 -0.8,0.8 -0.16,0.32 -0.16,0.64 -0.16,1.12 H 1.76 V 8.97 H -5.77 V 8.33 c 0,-0.64 0,-1.28 0.32,-1.76 C -5.29,6.09 -4.97,5.61 -4.49,5.13 -4.17,4.81 -3.37,4.16 -2.57,3.52 -1.6,2.88 -0.96,2.24 -0.64,1.76 -0.16,1.28 0,0.64 0,0 Z"
             style="fill:#2b2b2b;fill-opacity:1;fill-rule:nonzero;stroke:none"
             id="path178" /></g><g
           id="g180"
           transform="translate(598.03003,84.699997)"><path
             d="m 0,0 c 0,-0.32 0,-0.48 0.16,-0.64 0.32,-0.16 0.48,-0.32 0.8,-0.32 0.32,0 0.48,0.16 0.64,0.32 0.32,0.16 0.32,0.32 0.32,0.64 0,0.32 0,0.48 -0.32,0.8 C 1.44,0.96 1.28,0.96 0.96,0.96 0.64,0.96 0.48,0.96 0.16,0.8 0,0.48 0,0.32 0,0 Z"
             style="fill:#2b2b2b;fill-opacity:1;fill-rule:nonzero;stroke:none"
             id="path182" /></g><g
           id="g184"
           transform="translate(601.54999,79.730003)"><path
             d="m 0,0 c 0,-2.24 0.32,-3.84 1.13,-4.96 0.64,-0.96 1.76,-1.6 3.04,-1.6 2.56,0 3.84,2.08 3.84,6.24 0,2.09 -0.32,3.69 -1.12,4.65 C 6.25,5.45 5.29,6.09 3.85,6.09 2.73,6.09 1.77,5.45 1.13,4.49 0.32,3.37 0,1.93 0,0 Z m 1.61,-0.16 c 0,3.37 0.8,4.97 2.4,4.97 1.6,0 2.4,-1.76 2.4,-4.97 0,-3.36 -0.8,-5.12 -2.24,-5.12 -1.76,0 -2.56,1.76 -2.56,5.12 z"
             style="fill:#2b2b2b;fill-opacity:1;fill-rule:nonzero;stroke:none"
             id="path186" /></g><g
           id="g188"
           transform="translate(611,82.139999)"><path
             d="M 0,0 C 0,-0.64 0.32,-1.29 0.64,-1.93 1.12,-2.57 1.6,-2.89 2.25,-3.21 1.77,-3.53 1.28,-3.85 0.96,-4.33 0.64,-4.81 0.48,-5.29 0.48,-5.77 c 0,-0.64 0.16,-1.12 0.48,-1.6 0.32,-0.48 0.81,-0.96 1.29,-1.12 0.48,-0.32 1.12,-0.48 1.76,-0.48 0.64,0 1.12,0.16 1.76,0.48 0.48,0.16 0.96,0.64 1.12,1.12 0.32,0.48 0.48,0.96 0.48,1.6 0,0.48 -0.16,0.96 -0.48,1.44 -0.32,0.48 -0.64,0.8 -1.28,1.12 0.8,0.32 1.28,0.64 1.76,1.28 C 7.69,-1.29 7.85,-0.64 7.85,0 7.85,0.64 7.69,1.28 7.37,1.92 7.05,2.4 6.57,2.88 6.09,3.2 5.45,3.36 4.81,3.52 4.01,3.52 3.21,3.52 2.57,3.52 1.93,3.2 1.28,2.88 0.8,2.4 0.48,1.92 0.16,1.28 0,0.64 0,0 Z M 1.6,0 C 1.6,0.64 1.77,1.28 2.25,1.6 2.73,2.08 3.21,2.4 4.01,2.4 4.65,2.4 5.29,2.08 5.77,1.6 6.25,1.28 6.41,0.64 6.41,0 6.41,-0.64 6.25,-1.29 5.77,-1.77 5.29,-2.25 4.65,-2.41 4.01,-2.41 3.21,-2.41 2.73,-2.25 2.25,-1.77 1.77,-1.29 1.6,-0.8 1.6,0 Z m 0.33,-5.77 c 0,0.64 0.32,1.12 0.64,1.44 0.32,0.32 0.8,0.64 1.44,0.64 0.48,0 0.96,-0.32 1.44,-0.64 0.32,-0.32 0.48,-0.8 0.48,-1.44 0,-0.48 -0.16,-0.96 -0.48,-1.28 -0.48,-0.48 -0.96,-0.64 -1.44,-0.64 -0.64,0 -1.12,0.16 -1.44,0.64 -0.32,0.32 -0.64,0.8 -0.64,1.28 z"
             style="fill:#2b2b2b;fill-opacity:1;fill-rule:nonzero;stroke:none"
             id="path190" /></g><g
           id="g192"
           transform="translate(620.60999,84.699997)"><path
             d="m 0,0 c 0,-0.32 0.16,-0.48 0.32,-0.64 0.16,-0.16 0.32,-0.32 0.64,-0.32 0.32,0 0.64,0.16 0.8,0.32 C 1.92,-0.48 2.08,-0.32 2.08,0 2.08,0.32 1.92,0.48 1.76,0.8 1.6,0.96 1.28,0.96 0.96,0.96 0.64,0.96 0.48,0.96 0.32,0.8 0.16,0.48 0,0.32 0,0 Z"
             style="fill:#2b2b2b;fill-opacity:1;fill-rule:nonzero;stroke:none"
             id="path194" /></g><g
           id="g196"
           transform="translate(630.21997,76.529999)"><path
             d="m 0,0 c 0,-0.64 -0.16,-1.12 -0.64,-1.44 -0.48,-0.48 -0.96,-0.64 -1.76,-0.64 -0.48,0 -0.96,0.16 -1.44,0.48 -0.48,0.16 -0.96,0.48 -1.44,0.96 v -1.44 c 0.48,-0.32 0.8,-0.64 1.28,-0.96 0.64,-0.16 1.12,-0.32 1.92,-0.32 0.96,0 1.92,0.32 2.56,0.96 0.64,0.48 0.96,1.28 0.96,2.4 0,0.8 -0.16,1.6 -0.48,2.24 C 0.48,2.88 -0.16,3.52 -1.28,4.32 -2.24,4.97 -2.88,5.45 -3.2,5.77 -3.52,6.09 -3.84,6.41 -4,6.57 -4.16,6.89 -4.16,7.21 -4.16,7.69 H 1.92 V 8.97 H -5.76 V 8.33 C -5.76,7.69 -5.6,7.05 -5.44,6.57 -5.28,6.09 -4.96,5.61 -4.48,5.13 -4.16,4.81 -3.36,4.16 -2.56,3.52 -1.6,2.88 -0.96,2.24 -0.48,1.76 -0.16,1.28 0,0.64 0,0 Z"
             style="fill:#2b2b2b;fill-opacity:1;fill-rule:nonzero;stroke:none"
             id="path198" /></g><g
           id="g200"
           transform="translate(637.42999,85.5)"><path
             d="m 0,0 v -10.41 c -0.32,0.32 -0.64,0.64 -1.28,0.8 -0.48,0.32 -1.12,0.64 -1.6,0.64 v -1.44 c 0.64,-0.16 1.28,-0.48 2.08,-0.8 0.8,-0.48 1.28,-0.8 1.76,-1.12 H 1.44 L 1.44,0 Z"
             style="fill:#2b2b2b;fill-opacity:1;fill-rule:nonzero;stroke:none"
             id="path202" /></g><g
           id="g204"
           transform="translate(651.52002,85.5)"><path
             d="m 0,0 v -10.41 c -0.32,0.32 -0.64,0.64 -1.28,0.8 -0.48,0.32 -1.12,0.64 -1.6,0.64 v -1.44 c 0.64,-0.16 1.44,-0.48 2.08,-0.8 0.8,-0.48 1.28,-0.8 1.76,-1.12 H 1.44 L 1.44,0 Z"
             style="fill:#2b2b2b;fill-opacity:1;fill-rule:nonzero;stroke:none"
             id="path206" /></g><g
           id="g208"
           transform="translate(664.97998,74.290001)"><path
             d="m 0,0 c -1.28,2.24 -2.25,4.32 -2.89,6.24 -0.8,1.93 -1.28,3.53 -1.44,4.97 h -1.6 C -5.77,9.77 -5.29,8.17 -4.49,6.4 -3.85,4.48 -2.89,2.56 -1.6,0.48 H -7.69 V -0.96 H 0 Z"
             style="fill:#2b2b2b;fill-opacity:1;fill-rule:nonzero;stroke:none"
             id="path210" /></g><g
           id="g212"
           transform="translate(666.73999,77.650002)"><path
             d="m 0,0 c 0,-0.32 0.16,-0.48 0.32,-0.64 0.16,-0.16 0.48,-0.32 0.8,-0.32 0.16,0 0.48,0.16 0.64,0.32 C 1.92,-0.48 2.08,-0.32 2.08,0 2.08,0.32 1.92,0.48 1.76,0.8 1.6,0.96 1.28,0.96 1.12,0.96 0.8,0.96 0.48,0.96 0.32,0.8 0.16,0.48 0,0.32 0,0 Z M 0,7.05 C 0,6.73 0.16,6.57 0.32,6.41 0.48,6.25 0.8,6.09 1.12,6.09 1.28,6.09 1.6,6.25 1.76,6.41 1.92,6.57 2.08,6.73 2.08,7.05 2.08,7.37 1.92,7.53 1.76,7.85 1.6,8.01 1.28,8.01 1.12,8.01 0.8,8.01 0.48,8.01 0.32,7.85 0.16,7.53 0,7.37 0,7.05 Z"
             style="fill:#2b2b2b;fill-opacity:1;fill-rule:nonzero;stroke:none"
             id="path214" /></g><g
           id="g216"
           transform="translate(670.41998,79.730003)"><path
             d="m 0,0 c 0,-2.24 0.32,-3.84 1.12,-4.96 0.64,-0.96 1.6,-1.6 3.05,-1.6 2.56,0 3.84,2.08 3.84,6.24 0,2.09 -0.32,3.69 -1.12,4.65 C 6.25,5.45 5.13,6.09 3.85,6.09 2.56,6.09 1.6,5.45 0.96,4.49 0.32,3.37 0,1.93 0,0 Z m 1.6,-0.16 c 0,3.37 0.8,4.97 2.41,4.97 1.6,0 2.4,-1.76 2.4,-4.97 0,-3.36 -0.8,-5.12 -2.4,-5.12 -1.61,0 -2.41,1.76 -2.41,5.12 z"
             style="fill:#2b2b2b;fill-opacity:1;fill-rule:nonzero;stroke:none"
             id="path218" /></g><g
           id="g220"
           transform="translate(683.54999,85.5)"><path
             d="m 0,0 v -10.41 c -0.16,0.32 -0.64,0.64 -1.28,0.8 -0.48,0.32 -0.96,0.64 -1.44,0.64 v -1.44 c 0.64,-0.16 1.28,-0.48 1.92,-0.8 0.8,-0.48 1.29,-0.8 1.77,-1.12 H 1.61 L 1.61,0 Z"
             style="fill:#2b2b2b;fill-opacity:1;fill-rule:nonzero;stroke:none"
             id="path222" /></g><g
           id="g224"
           transform="translate(689.47998,77.650002)"><path
             d="m 0,0 c 0,-0.32 0,-0.48 0.32,-0.64 0.16,-0.16 0.32,-0.32 0.64,-0.32 0.32,0 0.48,0.16 0.64,0.32 0.32,0.16 0.32,0.32 0.32,0.64 0,0.32 0,0.48 -0.16,0.8 C 1.44,0.96 1.28,0.96 0.96,0.96 0.64,0.96 0.48,0.96 0.16,0.8 0,0.48 0,0.32 0,0 Z M 0,7.05 C 0,6.73 0,6.57 0.16,6.41 0.48,6.25 0.64,6.09 0.96,6.09 c 0.32,0 0.48,0.16 0.8,0.32 0.16,0.16 0.16,0.32 0.16,0.64 0,0.32 0,0.48 -0.16,0.8 -0.32,0.16 -0.48,0.16 -0.8,0.16 -0.32,0 -0.48,0 -0.8,-0.16 C 0,7.53 0,7.37 0,7.05 Z"
             style="fill:#2b2b2b;fill-opacity:1;fill-rule:nonzero;stroke:none"
             id="path226" /></g><g
           id="g228"
           transform="translate(693,79.730003)"><path
             d="m 0,0 c 0,-2.24 0.48,-3.84 1.13,-4.96 0.64,-0.96 1.76,-1.6 3.04,-1.6 2.56,0 3.84,2.08 3.84,6.24 0,2.09 -0.32,3.69 -0.96,4.65 C 6.25,5.45 5.29,6.09 4.01,6.09 2.73,6.09 1.77,5.45 1.13,4.49 0.32,3.37 0,1.93 0,0 Z m 1.61,-0.16 c 0,3.37 0.8,4.97 2.4,4.97 1.6,0 2.4,-1.76 2.4,-4.97 0,-3.36 -0.64,-5.12 -2.24,-5.12 -1.76,0 -2.56,1.76 -2.56,5.12 z"
             style="fill:#2b2b2b;fill-opacity:1;fill-rule:nonzero;stroke:none"
             id="path230" /></g><g
           id="g232"
           transform="translate(709.02002,73.330002)"><path
             d="M 0,0 V 8.17 H 1.76 V 9.29 H 0 v 2.88 H -1.44 V 9.29 H -7.21 V 8.17 C -6.09,7.04 -5.12,5.76 -4.16,4.16 -3.04,2.72 -2.24,1.44 -1.6,0 Z m -5.45,8.17 h 4.01 V 2.24 C -2.08,3.2 -2.56,4.16 -3.2,5.12 -3.84,6.08 -4.64,7.04 -5.45,8.17 Z"
             style="fill:#2b2b2b;fill-opacity:1;fill-rule:nonzero;stroke:none"
             id="path234" /></g></g></g></g></svg>
